<svg xmlns="http://www.w3.org/2000/svg" viewBox="0 0 30.03 30"><defs><style>.cls-1{fill:#ccc;}svg:hover .cls-1{fill:#333;}</style></defs><title>資產 3icon_map</title><g id="圖層_2" data-name="圖層 2"><g id="圖層_1-2" data-name="圖層 1"><path class="cls-1" d="M19.84,17.14q0,6.07,0,12.14a1,1,0,0,1-.18.56c-.19.23-.45.19-.71.06l-5.19-2.6-3.14-1.57a.69.69,0,0,1-.43-.7q0-12.17,0-24.34a.64.64,0,0,1,.28-.62.61.61,0,0,1,.63,0l7.42,3.71c.3.15.59.3.89.44a.68.68,0,0,1,.43.7Q19.83,11.05,19.84,17.14Z"/><path class="cls-1" d="M9.12,12.88q0,6.06,0,12.11a.74.74,0,0,1-.44.74C6.09,27.11,3.5,28.48.92,29.88A.59.59,0,0,1,0,29.32Q0,17.12,0,4.91a.61.61,0,0,1,.35-.6L8.27.1a.54.54,0,0,1,.84.51c0,.75,0,1.5,0,2.25Q9.12,7.87,9.12,12.88Z"/><path class="cls-1" d="M20.91,17.13q0-6.06,0-12.11a.75.75,0,0,1,.45-.76c2.58-1.36,5.16-2.73,7.72-4.12A.6.6,0,0,1,30,.69q0,12.18,0,24.36a.67.67,0,0,1-.4.66c-2.61,1.38-5.22,2.77-7.81,4.17a.59.59,0,0,1-.91-.57C20.92,25.25,20.91,21.19,20.91,17.13Z"/></g></g></svg>