<svg xmlns="http://www.w3.org/2000/svg" viewBox="0 0 159.62 51.02"><defs><style>.cls-1{stroke:#000;stroke-linejoin:round;stroke-width:0.24px;}.cls-2{fill:none;}.cls-3{fill:#f7b52c;}.cls-4{fill:#faed00;}</style></defs><title>資產 1logo</title><g id="圖層_2" data-name="圖層 2"><g id="圖層_1-2" data-name="圖層 1"><path d="M87.68,30.83a7.5,7.5,0,0,1,2.43,4.81H87.32a5.32,5.32,0,0,0-5.77-4.43,6.21,6.21,0,0,0-5,2.2q-1.89,2.2-1.89,6.73a9.91,9.91,0,0,0,1.7,6,5.91,5.91,0,0,0,5.08,2.31A5.34,5.34,0,0,0,86.24,46a9.34,9.34,0,0,0,1.29-3.37h2.79a9.6,9.6,0,0,1-2.45,5.6A8.66,8.66,0,0,1,81.15,51,8.79,8.79,0,0,1,75,48.76q-3.26-3-3.26-9.11A11.74,11.74,0,0,1,74.23,32a8.89,8.89,0,0,1,7.29-3.25A8.5,8.5,0,0,1,87.68,30.83Z"/><path d="M91.46,29.22H94v7.89a7.48,7.48,0,0,1,1.66-1.64,5.58,5.58,0,0,1,3.12-.82q3.35,0,4.55,2.35a8,8,0,0,1,.65,3.55v9.88h-2.66V40.72a5.43,5.43,0,0,0-.43-2.49A2.76,2.76,0,0,0,98.28,37a4.41,4.41,0,0,0-2.92,1.11Q94,39.18,94,42.26v8.17H91.46Z"/><path d="M116.8,36.56a7.78,7.78,0,0,1,2,5.84,10.06,10.06,0,0,1-1.8,6.15A6.5,6.5,0,0,1,111.46,51a6.29,6.29,0,0,1-5-2.15,8.53,8.53,0,0,1-1.86-5.77,9.22,9.22,0,0,1,2-6.18,6.55,6.55,0,0,1,5.26-2.3A6.91,6.91,0,0,1,116.8,36.56ZM115.19,46.8a9.78,9.78,0,0,0,.95-4.33,7.79,7.79,0,0,0-.68-3.51,3.84,3.84,0,0,0-3.73-2.13,3.66,3.66,0,0,0-3.41,1.81A8.45,8.45,0,0,0,107.25,43a7.35,7.35,0,0,0,1.07,4.1,3.75,3.75,0,0,0,3.39,1.64A3.52,3.52,0,0,0,115.19,46.8Z"/><path d="M131,36.56a7.78,7.78,0,0,1,2,5.84,10.06,10.06,0,0,1-1.8,6.15A6.5,6.5,0,0,1,125.63,51a6.29,6.29,0,0,1-5-2.15,8.53,8.53,0,0,1-1.86-5.77,9.22,9.22,0,0,1,2-6.18,6.55,6.55,0,0,1,5.26-2.3A6.91,6.91,0,0,1,131,36.56ZM129.37,46.8a9.78,9.78,0,0,0,.95-4.33,7.79,7.79,0,0,0-.68-3.51,3.84,3.84,0,0,0-3.73-2.13,3.66,3.66,0,0,0-3.41,1.81A8.45,8.45,0,0,0,121.42,43a7.35,7.35,0,0,0,1.07,4.1,3.75,3.75,0,0,0,3.39,1.64A3.52,3.52,0,0,0,129.37,46.8Z"/><path d="M135.53,45.59a3.71,3.71,0,0,0,.66,2,4.19,4.19,0,0,0,3.47,1.25,5.19,5.19,0,0,0,2.59-.63,2.07,2.07,0,0,0,1.12-1.93,1.65,1.65,0,0,0-.89-1.51,10.77,10.77,0,0,0-2.25-.73l-2.09-.52a10.25,10.25,0,0,1-3-1.09,3.26,3.26,0,0,1-1.7-2.91,4.42,4.42,0,0,1,1.6-3.54,6.43,6.43,0,0,1,4.29-1.35q3.53,0,5.09,2a4.4,4.4,0,0,1,.95,2.79H143a2.93,2.93,0,0,0-.63-1.59,4.12,4.12,0,0,0-3.17-1,3.86,3.86,0,0,0-2.28.56,1.74,1.74,0,0,0-.77,1.48,1.81,1.81,0,0,0,1,1.61,6.18,6.18,0,0,0,1.73.63l1.74.42a13.64,13.64,0,0,1,3.81,1.31A3.47,3.47,0,0,1,145.92,46a4.73,4.73,0,0,1-1.58,3.55,6.78,6.78,0,0,1-4.81,1.5q-3.48,0-4.93-1.56A5.87,5.87,0,0,1,133,45.59Z"/><path d="M156,35.44a5.85,5.85,0,0,1,2.33,2,6.9,6.9,0,0,1,1,2.72,17.89,17.89,0,0,1,.23,3.4H148.41a6.66,6.66,0,0,0,1.1,3.77,3.67,3.67,0,0,0,3.18,1.42,4.09,4.09,0,0,0,3.21-1.34,4.58,4.58,0,0,0,1-1.81h2.55a5.35,5.35,0,0,1-.67,1.89,6.87,6.87,0,0,1-1.27,1.71,6,6,0,0,1-2.9,1.55,8.74,8.74,0,0,1-2.1.23,6.43,6.43,0,0,1-4.85-2.09,8.18,8.18,0,0,1-2-5.86,8.89,8.89,0,0,1,2-6,6.58,6.58,0,0,1,5.23-2.32A7,7,0,0,1,156,35.44Zm.93,6a6.76,6.76,0,0,0-.73-2.69,3.72,3.72,0,0,0-3.52-1.87,3.89,3.89,0,0,0-3,1.29,4.88,4.88,0,0,0-1.27,3.27Z"/><path class="cls-1" d="M102.63,4.45h8.17a5.55,5.55,0,0,1,3.91,1.37,5,5,0,0,1,1.49,3.86,5.62,5.62,0,0,1-1.33,3.72A5,5,0,0,1,110.81,15h-5.7v7.72h-2.47ZM112.23,7A5.32,5.32,0,0,0,110,6.57H105.1V12.9H110a4.65,4.65,0,0,0,2.69-.71,2.82,2.82,0,0,0,1-2.5A2.75,2.75,0,0,0,112.23,7Z"/><path class="cls-1" d="M117.47,4.45h2.47V20.54h9.17v2.18H117.47Z"/><path class="cls-1" d="M135.05,4.45h2.79l6.63,18.27h-2.71l-1.91-5.47h-7.17l-2,5.47h-2.54Zm4.1,10.78-2.81-8.07-2.92,8.07Z"/><path class="cls-1" d="M144.8,4.45h2.92l9.11,14.76V4.45h2.36V22.71h-2.78L147.16,8V22.71H144.8Z"/><polygon points="49.05 44.71 49.05 35.69 66.09 35.69 66.09 29.59 49.05 29.59 49.05 22.14 67.61 22.14 67.61 15.93 44.6 15.93 41.88 15.93 37.14 15.93 32.46 36.24 31.38 41.62 30.31 36.02 26.14 15.93 18.4 15.93 14.44 36.14 13.43 41.62 12.42 36.02 7.79 15.93 0 15.93 9.95 51.02 16.76 51.02 21 30.5 22.23 23.71 23.47 30.5 27.71 51.02 34.73 51.02 41.88 25.61 41.88 51.02 68.47 51.02 68.47 44.71 49.05 44.71"/><path class="cls-2" d="M87.46,8.42a9.93,9.93,0,0,0-6.82,6.81A12.92,12.92,0,0,0,87.46,8.42Z"/><path class="cls-2" d="M80.25,18.26v2.62a.67.67,0,0,0,.67.67A12.86,12.86,0,0,0,93.76,8.7V8H90.5A15.61,15.61,0,0,1,80.25,18.26Z"/><path class="cls-2" d="M88.3,5.46a12.79,12.79,0,0,0,.18-2.07.67.67,0,0,0-.67-.67H84.87A9.92,9.92,0,0,0,75,12.63v3.61h.67a12.83,12.83,0,0,0,2-.18A12.62,12.62,0,0,1,88.3,5.46Z"/><path class="cls-3" d="M77.68,16.06a12.83,12.83,0,0,1-2,.18H75V12.63a9.92,9.92,0,0,1,9.91-9.91h2.94a.67.67,0,0,1,.67.67,12.79,12.79,0,0,1-.18,2.07,12.66,12.66,0,0,1,1.85-.15h.92a15.61,15.61,0,0,0,.13-1.92A3.39,3.39,0,0,0,87.82,0H84.87A12.63,12.63,0,0,0,72.24,12.63V19h3.39a15.66,15.66,0,0,0,1.89-.13v-.9A12.68,12.68,0,0,1,77.68,16.06Z"/><path class="cls-4" d="M91.07,5.31h-.92A12.73,12.73,0,0,0,77.53,17.94v2.94a3.39,3.39,0,0,0,3.39,3.39A15.57,15.57,0,0,0,96.49,8.7V5.31ZM93.76,8.7A12.86,12.86,0,0,1,80.91,21.55a.67.67,0,0,1-.67-.67V17.94A9.94,9.94,0,0,1,90.15,8h3.61Z"/></g></g></svg>