<svg xmlns="http://www.w3.org/2000/svg" viewBox="0 0 52.97 61.8"><defs><style>.cls-1{fill:#eeb100;}.cls-2{fill:#fff;}</style></defs><title>資產 1map-item</title><g id="圖層_2" data-name="圖層 2"><g id="圖層_1-2" data-name="圖層 1"><circle class="cls-1" cx="26.49" cy="26.49" r="26.49"/><polygon class="cls-1" points="26.49 61.8 34.13 48.56 18.84 48.56 26.49 61.8"/><path class="cls-2" d="M41.36,13c-.54-.47-3.49-2.7-4-3.18a3.23,3.23,0,0,0-2-.61H17.67a3.23,3.23,0,0,0-2,.61c-.55.48-3.5,2.71-4,3.18a2.33,2.33,0,0,0-.85,2.18c.15,1,3.55,23.76,3.55,23.76a1.64,1.64,0,0,0,1.45,1H37.22a1.64,1.64,0,0,0,1.45-1s3.4-22.76,3.55-23.76A2.33,2.33,0,0,0,41.36,13ZM26.49,28.95c-5.95,0-7.22-8.42-7.49-10.16h3.36c.51,2.53,1.66,6.86,4.12,6.86s3.62-4.33,4.12-6.86H34C33.71,20.53,32.44,28.95,26.49,28.95ZM13.6,15.45l4-4.21h17.7l4,4.21Z"/></g></g></svg>