<svg xmlns="http://www.w3.org/2000/svg" viewBox="0 0 30 30"><defs><style>.cls-1{fill:#dc4e41;}.cls-2,.cls-3{fill:#fff;}.cls-3{opacity:0.4;}.cls-3,.cls-4{isolation:isolate;}.cls-4{fill:#3e2723;opacity:0.1;}</style></defs><title>資產 5share</title><g id="圖層_2" data-name="圖層 2"><g id="圖層_1-2" data-name="圖層 1"><rect class="cls-1" width="30" height="30" rx="15" ry="15"/><path class="cls-2" d="M12,14.25V16h3a2.84,2.84,0,0,1-3,2.27,3.32,3.32,0,0,1,0-6.63,3,3,0,0,1,2.09.81l1.43-1.37A5,5,0,0,0,12,9.75a5.25,5.25,0,0,0,0,10.5,4.84,4.84,0,0,0,5-5.13,4.83,4.83,0,0,0-.08-.87H12Z"/><path class="cls-3" d="M12,14.34h5a3.89,3.89,0,0,1,.08.83v-.05a4.83,4.83,0,0,0-.08-.87H12Zm0-4.5a5,5,0,0,1,3.46,1.33l.05-.05A5,5,0,0,0,12,9.75,5.25,5.25,0,0,0,6.75,15v0A5.26,5.26,0,0,1,12,9.84Zm0,8.56a2.83,2.83,0,0,0,3-2.27h0a2.83,2.83,0,0,1-3,2.17A3.28,3.28,0,0,1,8.75,15s0,0,0,0A3.29,3.29,0,0,0,12,18.41Z"/><path class="cls-4" d="M12,11.68A3.29,3.29,0,0,0,8.75,15s0,0,0,0A3.28,3.28,0,0,1,12,11.78a3,3,0,0,1,2.09.81l1.43-1.37-.05,0L14.09,12.5A3,3,0,0,0,12,11.69Zm0,4.37v.09h3l0-.09Z"/><path class="cls-4" d="M12,20.25A5.26,5.26,0,0,1,6.75,15v0A5.25,5.25,0,0,0,12,20.34a4.84,4.84,0,0,0,5-5.13v0A4.84,4.84,0,0,1,12,20.25Z"/><path class="cls-2" d="M23.25,14.25h-1.5v-1.5h-1.5v1.5h-1.5v1.5h1.5v1.5h1.5v-1.5h1.5"/><path class="cls-3" d="M21.75,14.25h1.5v.09h-1.5Zm-1.5-1.5h1.5v.09h-1.5Zm-1.5,1.5h1.5v.09h-1.5Z"/><path class="cls-4" d="M18.75,15.75h1.5v.09h-1.5Zm3,0h1.5v.09h-1.5Zm-1.5,1.5h1.5v.09h-1.5Z"/></g></g></svg>