<svg xmlns="http://www.w3.org/2000/svg" viewBox="0 0 30 30"><defs><style>.cls-1{fill:#3ace01;}.cls-2{fill:#fff;}</style></defs><title>資產 4share</title><g id="圖層_2" data-name="圖層 2"><g id="圖層_1-2" data-name="圖層 1"><circle class="cls-1" cx="15" cy="15" r="15"/><path class="cls-2" d="M15,5.47c5.77,0,10.46,3.75,10.46,8.37a7.16,7.16,0,0,1-1.56,4.4,2.17,2.17,0,0,1-.19.24h0a9.07,9.07,0,0,1-1.14,1.13c-2.89,2.67-7.65,5.85-8.28,5.36s.9-2.51-.77-2.86l-.35,0h0c-4.9-.7-8.62-4.12-8.62-8.24C4.52,9.22,9.2,5.47,15,5.47Z"/><path class="cls-1" d="M8.91,16.51H11a.55.55,0,0,0,.55-.55v0a.55.55,0,0,0-.55-.55H9.5V11.92A.55.55,0,0,0,9,11.38h0a.55.55,0,0,0-.55.55v4A.55.55,0,0,0,8.91,16.51ZM22,14v0a.55.55,0,0,0-.55-.55H19.91v-.86h1.52A.55.55,0,0,0,22,12v0a.55.55,0,0,0-.55-.55H19.32a.55.55,0,0,0-.55.55v4a.55.55,0,0,0,.55.55h2.11A.55.55,0,0,0,22,16v0a.55.55,0,0,0-.55-.55H19.91v-.86h1.52A.55.55,0,0,0,22,14Zm-4.06,2.37h0a.54.54,0,0,0,.16-.38v-4a.55.55,0,0,0-.55-.55h0a.55.55,0,0,0-.55.55V14.3l-2-2.64a.55.55,0,0,0-.47-.28h0a.55.55,0,0,0-.55.55v4a.55.55,0,0,0,.55.55h0A.55.55,0,0,0,15,16V13.55l2,2.71,0,.05h0a.46.46,0,0,0,.21.16.54.54,0,0,0,.21,0h0a.54.54,0,0,0,.25-.06.38.38,0,0,0,.13-.1Zm-5.37.16h0a.55.55,0,0,0,.55-.55v-4a.55.55,0,0,0-.55-.55h0a.55.55,0,0,0-.55.55v4a.55.55,0,0,0,.55.55Z"/></g></g></svg>