<svg xmlns="http://www.w3.org/2000/svg" viewBox="0 0 25.26 25.26"><defs><style>.cls-1{fill:#fff;}</style></defs><title>資產 3social</title><g id="圖層_2" data-name="圖層 2"><g id="圖層_1-2" data-name="圖層 1"><rect width="25.26" height="25.26" rx="12.63" ry="12.63"/><g id="bCz0A4"><path class="cls-1" d="M18.71,15.16a3.94,3.94,0,0,1-.52,2,3,3,0,0,1-2.12,1.45,10.79,10.79,0,0,1-1.66.14c-1.2,0-2.39,0-3.59,0A5.82,5.82,0,0,1,9,18.49a3,3,0,0,1-2.11-2.43,9.75,9.75,0,0,1-.14-1.66c0-1.19,0-2.38,0-3.57A5.84,5.84,0,0,1,7,9a3,3,0,0,1,2.42-2.1A9.61,9.61,0,0,1,11,6.71c1.2,0,2.39,0,3.59,0A5.82,5.82,0,0,1,16.49,7,3,3,0,0,1,18.6,9.38,11.33,11.33,0,0,1,18.73,11C18.75,11.6,18.73,14.34,18.71,15.16Zm-1.06-4c0-.46,0-.91-.08-1.37a2,2,0,0,0-1.71-1.91,9.59,9.59,0,0,0-1.61-.13c-1,0-2,0-3.06,0a11,11,0,0,0-1.52.11A2,2,0,0,0,8,9.4a3.54,3.54,0,0,0-.13.86c0,1.09,0,2.18,0,3.27,0,.69,0,1.39.08,2.08a2,2,0,0,0,1.7,1.91,9.64,9.64,0,0,0,1.64.13c1,0,2,0,3,0,.46,0,.92,0,1.38-.08a2.2,2.2,0,0,0,1.18-.46,2.23,2.23,0,0,0,.81-1.74C17.64,14.46,17.66,11.67,17.65,11.2Z"/><path class="cls-1" d="M15.81,12.73a3.09,3.09,0,1,1-3.05-3.1A3.08,3.08,0,0,1,15.81,12.73Zm-1.09,0a2,2,0,1,0-2,2A2,2,0,0,0,14.73,12.73Z"/><path class="cls-1" d="M15.95,8.79a.71.71,0,0,1,.71.74.72.72,0,0,1-.73.71.73.73,0,0,1-.72-.74A.72.72,0,0,1,15.95,8.79Z"/></g></g></g></svg>