<svg xmlns="http://www.w3.org/2000/svg" viewBox="0 0 24.94 24.94"><defs><style>.cls-1{fill:#fff;}</style></defs><title>資產 4social</title><g id="圖層_2" data-name="圖層 2"><g id="圖層_1-2" data-name="圖層 1"><circle cx="12.47" cy="12.47" r="12.47"/><path class="cls-1" d="M8.67,14.46A1.18,1.18,0,0,0,8.75,14v-.31c0-.22,0-.24-.27-.25H6.84c0,.47-.05.95-.06,1.44a.85.85,0,0,0,.54.8l.43.16v-.52a.19.19,0,0,1,.05-.15.42.42,0,0,1,.2-.07A.83.83,0,0,0,8.37,15,.94.94,0,0,0,8.67,14.46Zm.08-2.16v-.58c0-.22-.05-.24-.27-.25H7.07Q7,12,6.92,12.55H8.48C8.7,12.54,8.74,12.52,8.75,12.3Zm-.27-1.74c.22,0,.26,0,.27-.25V9.69a.16.16,0,0,0,0-.12.18.18,0,0,0-.13-.05h-.1l-1,.19c-.07.28-.14.56-.2.84Zm8.93-2.62a23.34,23.34,0,0,0-7.92-1.6c-.62,0-1,.23-1.13.61-.24.6-.46,1.2-.64,1.8l.75-.11c.28-.07.27-.1.28-.3s0-.18,0-.27V7.73a.33.33,0,0,1,.09-.27.39.39,0,0,1,.27-.07h.36a.4.4,0,0,1,.27.07.33.33,0,0,1,.09.27c0,.1,0,.34,0,.44s0,.11.1.12l.16,0c.12,0,.52-.17.85-.3a.41.41,0,0,1,.17,0,.23.23,0,0,1,.19.14c.08.13.23.44.25.48h0a.26.26,0,0,1,0,.1.15.15,0,0,1-.09.14l-.23.09L10.78,9l-.66.18c-.23.06-.28.09-.28.31v.66c0,.22,0,.23.27.25h1.14a.4.4,0,0,1,.27.07.33.33,0,0,1,.09.27V11a.33.33,0,0,1-.09.27.41.41,0,0,1-.27.07H10.11c-.23,0-.26,0-.27.25v.75c0,.22,0,.24.27.25h1.14a.41.41,0,0,1,.27.07.33.33,0,0,1,.09.27c0,.16,0,.19,0,.24a.33.33,0,0,1-.09.27.4.4,0,0,1-.27.07H10.1c-.22,0-.26,0-.27.24s0,.3,0,.3a2.27,2.27,0,0,1-.28,1.16,1.86,1.86,0,0,1-.88.87l-.23.08c.71.24,1.42.45,2.13.63a2.53,2.53,0,0,1-.82,1.52c-.1.07-.11.11-.07.2l0,.08a.17.17,0,0,0,.25,0A4.43,4.43,0,0,0,11.91,17a24,24,0,0,0,3.78.37c.47,0,.69-.23.91-.66a20.68,20.68,0,0,0,1.56-7.83C18.13,8.47,18,8.23,17.41,7.93Zm-3.28,6.88h-.38a.41.41,0,0,1-.27-.07.33.33,0,0,1-.09-.27c0-.05,0-.25,0-.33a.33.33,0,0,1,.09-.27.41.41,0,0,1,.27-.07H14a.69.69,0,0,0,.56-.19.82.82,0,0,0,.14-.53,2.82,2.82,0,0,0-.42-1.25,4.54,4.54,0,0,0-.58-.75.36.36,0,0,1-.13-.25.56.56,0,0,1,0-.19c.15-.43.75-2.2.76-2.24H13s0,0,0,0c0,.65,0,6,0,7.42a.33.33,0,0,1-.09.27.4.4,0,0,1-.27.07h-.3a.41.41,0,0,1-.27-.07.33.33,0,0,1-.09-.27c0-.12,0-8.07,0-8.07a.33.33,0,0,1,.09-.27.41.41,0,0,1,.27-.07h2.5c.23,0,.33.07.49.31l.08.12a.47.47,0,0,1,.12.28.67.67,0,0,1,0,.2c-.17.52-.73,2-.82,2.23a.56.56,0,0,0-.07.19s0,.07.1.15a3,3,0,0,1,.83,1.24,3.2,3.2,0,0,1,.17,1C15.69,14.17,15.3,14.82,14.13,14.81Z"/></g></g></svg>