<svg xmlns="http://www.w3.org/2000/svg" viewBox="0 0 25.26 25.26"><defs><style>.cls-1{fill:#fff;}</style></defs><title>資產 2social</title><g id="圖層_2" data-name="圖層 2"><g id="圖層_1-2" data-name="圖層 1"><rect width="25.26" height="25.26" rx="12.63" ry="12.63"/><path class="cls-1" d="M10.55,10.29H9.86a.19.19,0,0,0-.19.19v4.3a.19.19,0,0,0,.19.19h.69a.19.19,0,0,0,.19-.19v-4.3a.19.19,0,0,0-.19-.19"/><path class="cls-1" d="M15.32,10.29h-.69a.19.19,0,0,0-.19.19V13l-2-2.66,0,0h-.84a.19.19,0,0,0-.19.19v4.3a.19.19,0,0,0,.19.19h.69a.19.19,0,0,0,.19-.19V12.23l2,2.67,0,0h.8a.19.19,0,0,0,.19-.19v-4.3a.19.19,0,0,0-.19-.19"/><path class="cls-1" d="M8.88,13.9H7V10.48a.19.19,0,0,0-.19-.19H6.12a.19.19,0,0,0-.19.19v4.3h0a.19.19,0,0,0,.05.13H6a.19.19,0,0,0,.13.05H8.88a.19.19,0,0,0,.19-.19v-.69a.19.19,0,0,0-.19-.19"/><path class="cls-1" d="M19.15,11.37a.19.19,0,0,0,.19-.19v-.69a.19.19,0,0,0-.19-.19H16.38a.19.19,0,0,0-.13.05h0a.19.19,0,0,0-.05.13h0v4.3h0a.19.19,0,0,0,.05.13h0a.19.19,0,0,0,.13.05h2.77a.19.19,0,0,0,.19-.19v-.69a.19.19,0,0,0-.19-.19H17.26v-.73h1.88a.19.19,0,0,0,.19-.19v-.69a.19.19,0,0,0-.19-.19H17.26v-.73Z"/></g></g></svg>