<svg xmlns="http://www.w3.org/2000/svg" viewBox="0 0 23.81 23.81"><title>資產 2tool</title><g id="圖層_2" data-name="圖層 2"><g id="圖層_1-2" data-name="圖層 1"><path d="M21.52,11.9a4.05,4.05,0,0,1,2.29-3.46,12.52,12.52,0,0,0-1-2.37A3.83,3.83,0,0,1,19,4.82,3.7,3.7,0,0,1,18,1a12.49,12.49,0,0,0-2.37-1A4.49,4.49,0,0,1,11.9,2.29,4.49,4.49,0,0,1,8.16,0,12.51,12.51,0,0,0,5.79,1a3.71,3.71,0,0,1-1,3.84A3.83,3.83,0,0,1,1,6.07,12.5,12.5,0,0,0,0,8.44,4.05,4.05,0,0,1,2.29,11.9,4.49,4.49,0,0,1,0,15.65,12.51,12.51,0,0,0,1,18a3.71,3.71,0,0,1,3.84,1,3.71,3.71,0,0,1,1,3.84,12.48,12.48,0,0,0,2.37,1,4.49,4.49,0,0,1,3.74-2.29,4.49,4.49,0,0,1,3.74,2.29,12.49,12.49,0,0,0,2.37-1A3.7,3.7,0,0,1,19,19a3.83,3.83,0,0,1,3.84-1.25,12.51,12.51,0,0,0,1-2.37A4.05,4.05,0,0,1,21.52,11.9ZM11.9,17.08a5.18,5.18,0,1,1,5.18-5.18A5.18,5.18,0,0,1,11.9,17.08Z"/></g></g></svg>